<svg height="512pt" viewBox="0 -79 512.00121 512" width="512pt" xmlns="http://www.w3.org/2000/svg"><path d="m7.691406 354.105469c-1.777344 0-3.5625-.613281-5.015625-1.863281-3.21875-2.769532-3.585937-7.628907-.816406-10.851563l84.765625-98.566406c2.773438-3.222657 7.628906-3.585938 10.851562-.816407 3.222657 2.773438 3.589844 7.632813.816407 10.851563l-84.761719 98.566406c-1.523438 1.769531-3.675781 2.679688-5.839844 2.679688zm0 0" fill="#3a4d7b"/><path d="m504.308594 354.105469c-2.164063 0-4.316406-.910157-5.839844-2.679688l-119.96875-139.5c-2.769531-3.222656-2.40625-8.082031.816406-10.851562s8.082032-2.40625 10.855469.816406l119.96875 139.5c2.769531 3.222656 2.40625 8.082031-.816406 10.851563-1.457031 1.25-3.242188 1.863281-5.015625 1.863281zm0 0" fill="#3a4d7b"/><path d="m118.097656 214.492188c-4.25 0-7.695312-3.445313-7.695312-7.695313v-15.390625c0-4.25 3.445312-7.695312 7.695312-7.695312s7.695313 3.445312 7.695313 7.695312v15.390625c0 4.246094-3.445313 7.695313-7.695313 7.695313zm0-46.171876c-4.25 0-7.695312-3.445312-7.695312-7.695312v-9.136719c0-2.359375.128906-4.738281.382812-7.070312.457032-4.226563 4.25-7.277344 8.480469-6.820313 4.222656.457032 7.277344 4.253906 6.820313 8.480469-.191407 1.78125-.292969 3.601563-.292969 5.410156v9.132813c0 4.25-3.445313 7.699218-7.695313 7.699218zm11.574219-43.621093c-1.617187 0-3.253906-.507813-4.644531-1.566407-3.382813-2.566406-4.046875-7.394531-1.476563-10.78125 3.519531-4.640624 7.648438-8.789062 12.269531-12.332031 3.375-2.585937 8.207032-1.945312 10.789063 1.425781 2.585937 3.375 1.949219 8.207032-1.425781 10.789063-3.53125 2.707031-6.683594 5.875-9.371094 9.421875-1.515625 1.996094-3.8125 3.042969-6.140625 3.042969zm39.007813-22.261719c-3.859376.003906-7.1875-2.898438-7.636719-6.824219-.480469-4.222656 2.554687-8.035156 6.777343-8.515625 2.433594-.277344 4.921876-.417968 7.390626-.417968h8.855468c4.25 0 7.695313 3.445312 7.695313 7.695312s-3.445313 7.695312-7.695313 7.695312h-8.855468c-1.890626 0-3.789063.105469-5.648438.320313-.296875.03125-.59375.046875-.882812.046875zm200.074218-.367188h-15.390625c-4.25 0-7.695312-3.445312-7.695312-7.695312s3.445312-7.695312 7.695312-7.695312h15.390625c4.25 0 7.695313 3.445312 7.695313 7.695312s-3.445313 7.695312-7.695313 7.695312zm-46.171875 0h-15.390625c-4.25 0-7.695312-3.445312-7.695312-7.695312s3.445312-7.695312 7.695312-7.695312h15.390625c4.25 0 7.695313 3.445312 7.695313 7.695312s-3.445313 7.695312-7.695313 7.695312zm-46.171875 0h-15.390625c-4.25 0-7.695312-3.445312-7.695312-7.695312s3.445312-7.695312 7.695312-7.695312h15.390625c4.25 0 7.695313 3.445312 7.695313 7.695312s-3.445313 7.695312-7.695313 7.695312zm-46.171875 0h-15.390625c-4.25 0-7.695312-3.445312-7.695312-7.695312s3.445312-7.695312 7.695312-7.695312h15.390625c4.25 0 7.695313 3.445312 7.695313 7.695312s-3.445313 7.695312-7.695313 7.695312zm0 0" fill="#7d8eb0"/><path d="m452.484375 274.238281-31.328125 64.757813c-2.195312 4.539062-6.789062 7.417968-11.832031 7.417968h-306.652344c-5.039063 0-9.636719-2.878906-11.832031-7.417968l-31.328125-64.757813 190.175781-221.15625c3.320312-3.863281 9.300781-3.863281 12.621094 0zm0 0" fill="#fff7af"/><path d="m256 124.292969h12.3125v222.121093h-12.3125zm0 0" fill="#ddca7c"/><path d="m256 206.921875v139.492187h72.9375zm0 0" fill="#516789"/><path d="m262.3125 53.082031c-3.324219-3.863281-9.304688-3.863281-12.625 0l-2.523438 2.933594 166.40625 211.738281c3.132813 3.992188 3.8125 9.386719 1.761719 14.027344l-25.300781 57.214844c-2.003906 4.539062-6.203125 7.417968-10.808594 7.417968h30.105469c5.039063 0 9.632813-2.878906 11.828125-7.417968l31.328125-64.757813zm0 0" fill="#ddca7c"/><path d="m323.546875 124.292969-61.234375-71.210938c-3.320312-3.863281-9.304688-3.863281-12.625 0l-61.234375 71.210938zm0 0" fill="#fed89b"/><path d="m247.164062 56.015625 53.660157 68.277344h22.722656c-64.539063-74.808594-61.109375-71.667969-63.347656-72.976563-1.421875-.828125-3.109375-1.238281-4.835938-1.105468-1.691406.128906-5.640625 2.757812-8.199219 5.804687zm0 0" fill="#d69e5b"/><path d="m328.9375 346.414062 23.207031-38.792968c.964844-1.613282.710938-3.675782-.617187-5.003906l-95.527344-95.695313zm0 0" fill="#f79374"/><path d="m479.429688 6.519531c-6.222657-5.382812-15.4375-6.796875-23.199219-4.074219-7.695313 2.699219-14.800781 9.589844-16.609375 17.664063-6.164063-11.652344-17.675782-21.078125-31.570313-20.0273438-13.449219 1.0156248-25.488281 13.6757808-24.175781 27.0976568.78125 7.984374 5.640625 14.949218 10.808594 21.085937 5.167968 6.136719 10.789062 12.074219 14.105468 19.378906 4.148438 9.128907 3.550782 17.894531-.707031 25.828125-1.554687 2.894532.949219 6.277344 4.183594 5.699219 34.179687-6.109375 75.953125-36.292969 75.839844-71.796875-.027344-7.761719-2.800781-15.777344-8.675781-20.855469zm0 0" fill="#f492ca"/><path d="m479.429688 6.519531c-6.222657-5.382812-15.4375-6.796875-23.199219-4.074219-.722657.253907-1.441407.542969-2.148438.867188 1.386719.835938 2.691407 1.902344 3.855469 3.207031 4.554688 5.078125 6.707031 13.09375 6.726562 20.855469.085938 34.097656-29.78125 63.285156-55.617187 70.957031.835937.699219 1.972656 1.066407 3.21875.839844 34.179687-6.105469 75.953125-36.289063 75.839844-71.796875-.027344-7.761719-2.800781-15.777344-8.675781-20.855469zm0 0" fill="#db6595"/><path d="m280.277344 306.535156h-8.019532c-4.25 0-7.695312-3.445312-7.695312-7.695312s3.445312-7.695313 7.695312-7.695313h8.019532c4.25 0 7.695312 3.445313 7.695312 7.695313 0 4.246094-3.445312 7.695312-7.695312 7.695312zm-38.800782 0h-15.390624c-4.25 0-7.695313-3.445312-7.695313-7.695312s3.445313-7.695313 7.695313-7.695313h15.390624c4.25 0 7.695313 3.445313 7.695313 7.695313 0 4.246094-3.445313 7.695312-7.695313 7.695312zm-46.171874 0h-15.390626c-4.25 0-7.695312-3.445312-7.695312-7.695312s3.445312-7.695313 7.695312-7.695313h15.390626c4.25 0 7.695312 3.445313 7.695312 7.695313 0 4.246094-3.445312 7.695312-7.695312 7.695312zm-45.277344-5.835937c-1.140625 0-2.296875-.253907-3.390625-.789063-5.21875-2.570312-10.078125-5.835937-14.445313-9.710937-3.175781-2.824219-3.464844-7.6875-.640625-10.863281 2.820313-3.179688 7.683594-3.46875 10.863281-.644532 3.332032 2.957032 7.035157 5.449219 11.015626 7.40625 3.8125 1.875 5.386718 6.484375 3.511718 10.300782-1.339844 2.722656-4.070312 4.300781-6.914062 4.300781zm-29.289063-34.054688c-3.265625 0-6.300781-2.097656-7.335937-5.378906-1.75-5.539063-2.742188-11.3125-2.957032-17.152344-.152343-4.25 3.164063-7.816406 7.414063-7.96875 4.210937-.160156 7.8125 3.164063 7.96875 7.410157.160156 4.457031.917969 8.859374 2.25 13.074218 1.28125 4.054688-.964844 8.378906-5.019531 9.65625-.769532.246094-1.554688.359375-2.320313.359375zm-2.640625-45.898437c-4.25 0-7.695312-3.445313-7.695312-7.695313v-15.390625c0-4.25 3.445312-7.695312 7.695312-7.695312s7.695313 3.445312 7.695313 7.695312v15.390625c0 4.25-3.445313 7.695313-7.695313 7.695313zm0-46.171875c-4.25 0-7.695312-3.445313-7.695312-7.695313v-15.390625c0-4.25 3.445312-7.695312 7.695312-7.695312s7.695313 3.445312 7.695313 7.695312v15.390625c0 4.25-3.445313 7.695313-7.695313 7.695313zm0 0" fill="#7d8eb0"/></svg>